HIERARCHY
ROOT hip
{
	OFFSET 0.000000 0.000000 0.000000 
	CHANNELS 6 Xposition Yposition Zposition Xrotation Zrotation Yrotation
	JOINT abdomen
	{
		OFFSET 0.000000 3.402643 0.000000 
		CHANNELS 3 Xrotation Zrotation Yrotation
		JOINT chest
		{
			OFFSET 0.000000 8.438565 -0.680529 
			CHANNELS 3 Xrotation Zrotation Yrotation
			JOINT neck
			{
				OFFSET 0.000000 10.207942 -0.272212 
				CHANNELS 3 Xrotation Zrotation Yrotation
				JOINT head
				{
					OFFSET 0.000000 3.130431 0.000000 
					CHANNELS 3 Xrotation Zrotation Yrotation
					End Site
					{
						OFFSET 0.000000 3.130435 0.000000 
					}
				}
			}
			JOINT lCollar
			{
				OFFSET 3.470700 6.669187 -0.816635 
				CHANNELS 3 Yrotation Zrotation Xrotation
				JOINT lShldr
				{
					OFFSET 3.198488 0.000000 0.000000 
					CHANNELS 3 Zrotation Yrotation Xrotation
					JOINT lForeArm
					{
						OFFSET 10.139888 0.000000 0.000000 
						CHANNELS 3 Yrotation Zrotation Xrotation
						JOINT lHand
						{
							OFFSET 8.370511 0.000000 0.000000 
							CHANNELS 3 Zrotation Yrotation Xrotation
							End Site
							{
								OFFSET 4.083176 0.000000 0.000000 
							}
						}
					}
				}
			}
			JOINT rCollar
			{
				OFFSET -3.470700 6.669187 -0.816635 
				CHANNELS 3 Yrotation Zrotation Xrotation
				JOINT rShldr
				{
					OFFSET -3.198488 0.000000 0.000000 
					CHANNELS 3 Zrotation Yrotation Xrotation
					JOINT rForeArm
					{
						OFFSET -10.139888 0.000000 0.000000 
						CHANNELS 3 Yrotation Zrotation Xrotation
						JOINT rHand
						{
							OFFSET -8.370511 0.000000 0.000000 
							CHANNELS 3 Zrotation Yrotation Xrotation
							End Site
							{
								OFFSET -4.083176 0.000000 0.000000 
							}
						}
					}
				}
			}
		}
	}
	JOINT lThigh
	{
		OFFSET 5.308129 -1.633274 1.361059 
		CHANNELS 3 Xrotation Zrotation Yrotation
		JOINT lShin
		{
			OFFSET -2.041588 -20.007561 0.000000 
			CHANNELS 3 Xrotation Zrotation Yrotation
			JOINT lFoot
			{
				OFFSET 0.000000 -19.190928 -1.224953 
				CHANNELS 3 Xrotation Yrotation Zrotation
				End Site
				{
					OFFSET 0.000000 -2.449906 4.627600 
				}
			}
		}
	}
	JOINT rThigh
	{
		OFFSET -5.308129 -1.633274 1.361059 
		CHANNELS 3 Xrotation Zrotation Yrotation
		JOINT rShin
		{
			OFFSET 2.041588 -20.007561 0.000000 
			CHANNELS 3 Xrotation Zrotation Yrotation
			JOINT rFoot
			{
				OFFSET 0.000000 -19.190928 -1.224953 
				CHANNELS 3 Xrotation Yrotation Zrotation
				End Site
				{
					OFFSET 0.000000 -2.449906 4.627600 
				}
			}
		}
	}
}
MOTION
Frames: 13
Frame Time: 0.033333
8.296381 43.412891 20.782249 2.740691 3.758494 -27.054884 0.000000 0.000000 0.000000 -16.441299 -0.019115 -11.855472 -2.555676 10.905693 6.595510 18.197260 -19.657423 12.910873 -3.521967 9.154817 6.304141 36.730923 -37.859413 -90.024345 -29.533653 29.716278 27.069832 20.301123 26.565374 -6.819172 3.089181 -14.089146 8.026228 -21.978497 62.114162 -94.833153 52.882786 -5.600718 63.371109 -16.881762 -18.042896 -8.294024 2.268483 1.683544 8.411630 36.801079 -5.006344 -4.526450 -40.879421 -2.866657 7.681267 -43.411106 -2.138459 -6.451756 62.545376 -9.082969 -7.158850 -13.951180 -0.319334 1.058747 
7.608959 43.386787 23.689537 3.871917 3.519914 -24.815285 0.000000 0.000000 0.000000 -19.906570 0.790521 -15.489734 -0.519306 10.686505 6.858097 17.787033 -20.914253 13.133091 -3.521967 9.154817 6.304141 37.293774 -36.462090 -89.404594 -28.863768 29.289242 22.406904 21.786718 27.297798 -6.520931 3.089181 -14.089146 8.026228 -25.393656 61.751175 -95.251221 51.617699 -6.866528 61.088001 -16.132755 -18.039621 -8.341024 5.369793 1.210922 7.692301 35.699219 -4.146929 -5.091182 -36.724743 -2.151568 6.505271 -42.235203 -3.164359 -8.438663 63.576206 -8.149621 -4.488072 -7.564530 -0.224809 0.936486 
7.005783 43.089565 26.326487 3.920447 2.865823 -22.676155 0.000000 0.000000 0.000000 -19.925436 1.462497 -18.590174 -1.232738 10.032105 7.071948 16.914064 -22.288361 13.428666 -3.521967 9.154817 6.304141 39.500114 -32.884399 -89.491554 -28.664114 28.744801 18.803980 23.191784 28.243814 -6.177900 3.089181 -14.089146 8.026228 -37.998867 60.216209 -102.851685 44.134655 -12.384139 59.166943 -16.837944 -17.872076 -8.314793 3.817837 2.343545 8.436300 46.142593 -2.519333 -10.429605 -26.203316 -0.717003 3.550919 -36.217937 -4.042215 -11.121579 61.840199 -5.645330 -13.154484 -20.842148 -0.500011 1.493734 
6.727164 42.643341 28.398989 3.013875 1.219369 -24.302654 0.000000 0.000000 0.000000 -12.446972 3.901662 -12.372500 -5.975345 9.835580 6.216203 13.335168 -22.486589 13.577462 -3.521967 9.154817 6.304141 49.919319 -26.885954 -95.539482 -28.231039 28.274210 19.482422 21.955460 28.063986 -6.373320 3.089181 -14.089146 8.026228 -54.865208 48.555229 -118.002052 29.117582 -21.086033 61.207455 -18.337458 -19.118099 -8.106997 -4.204502 4.339077 10.203815 67.800514 0.023873 -14.347246 -13.347339 0.376685 -0.798999 -31.024454 -2.832021 -10.288935 60.753857 -6.573251 -13.387682 -29.107828 -0.825357 1.998689 
6.987621 42.153275 30.049690 1.020873 -0.194306 -30.107628 0.000000 0.000000 0.000000 -0.596026 5.412040 3.099800 -10.348587 10.722297 3.529742 7.267246 -18.882534 12.486064 -3.521967 9.154817 6.304141 61.886993 -20.185259 -104.317596 -27.185837 27.442728 24.625553 22.452431 25.803226 -6.591819 3.089181 -14.089146 8.026228 -63.086338 31.052971 -131.152527 24.613430 -21.271902 60.140377 -18.864634 -20.927019 -7.886445 -16.118164 6.227019 13.592122 92.235382 2.487521 -14.617981 -10.614151 0.456821 -2.169019 -28.871569 -2.010793 -9.017984 63.817257 -8.457024 -11.937163 -29.583353 -0.916040 2.212074 
7.548741 42.748447 31.734766 -1.082006 1.643087 -33.609180 0.000000 0.000000 0.000000 7.400808 2.083003 15.176342 -17.296171 10.281897 0.923249 7.714356 -15.240890 9.648952 -3.521967 9.154817 6.304141 70.104988 -16.327110 -113.665192 -24.895041 25.482048 35.216484 30.805202 19.148767 -7.134417 3.089181 -14.089146 8.026228 -71.389862 20.788527 -141.373672 23.038000 -19.197388 64.782608 -22.738659 -23.306360 -7.208994 -32.817719 6.872495 15.559121 110.358696 4.322812 -7.450778 -11.548255 0.600210 -2.817304 -26.180756 -8.066311 -11.252081 62.312397 -8.661849 -3.314553 -29.181250 -0.706099 1.561645 
7.790451 44.780758 33.985023 -3.265019 4.210230 -34.549519 0.000000 0.000000 0.000000 12.562196 -2.823090 22.997957 -24.174118 8.798532 -0.473690 14.665888 -12.311323 6.667234 -3.521967 9.154817 6.304141 77.316986 -15.301939 -128.288864 -23.108810 22.857363 46.620071 28.351467 18.358807 -7.353000 3.089181 -14.089146 8.026228 -79.165298 16.207592 -155.517227 21.240545 -16.674007 80.403145 -27.264788 -25.959925 -6.220858 -48.148430 7.702582 15.670472 120.322060 5.180793 -7.818441 -10.999215 0.605265 -2.877490 -19.413286 -16.141479 -15.931205 53.569145 -6.629780 6.706246 -25.144087 -0.357819 0.848506 
7.452177 48.069576 36.707466 -5.407794 5.875939 -33.686001 0.000000 0.000000 0.000000 18.026030 -8.352136 23.446697 -32.978252 7.108418 -0.943587 25.889551 -8.122211 4.270185 -3.521967 9.154817 6.304141 81.913567 -14.677508 -142.491501 -22.976866 19.051176 43.238525 20.776407 19.513330 -7.652705 3.089181 -14.089146 8.026228 -84.763969 14.324643 -166.698288 20.200306 -17.846058 76.912453 -27.668928 -26.967237 -5.973004 -59.053749 9.381433 12.849426 124.954376 5.884180 -7.833549 -13.358408 0.465236 -1.714867 -8.349474 -20.617199 -20.366816 38.404533 -4.002726 13.993948 -11.600202 0.007275 0.394702 
6.722567 52.516663 39.805561 -7.674251 7.897056 -30.128170 0.000000 0.000000 0.000000 24.243235 -14.240646 13.174303 -37.067841 8.520946 -4.324095 34.227558 -7.630714 2.285751 -3.521967 9.154817 6.304141 83.198105 -14.720525 -151.581726 -22.809475 14.146104 46.697968 20.807512 14.399354 -8.283813 3.089181 -14.089146 8.026228 -83.824951 12.672966 -164.860077 16.554480 -14.347979 77.073753 -27.968460 -21.523075 -6.989876 -65.899139 9.186869 8.925274 126.922249 6.148499 -7.289798 -17.840384 0.185777 0.172539 8.089419 -20.647985 -23.812050 9.658832 -1.786826 18.919384 27.827909 0.707130 4.237753 
5.873527 56.276722 43.259914 -7.973651 11.518229 -24.338259 0.000000 0.000000 0.000000 21.125118 -19.508348 2.183531 -33.135574 9.564842 -6.675109 38.618553 -7.724268 0.541423 -3.521967 9.154817 6.304141 79.547371 -26.770571 -144.171463 -21.371950 10.831784 49.819962 22.002338 10.051204 -8.823107 3.089181 -14.089146 8.026228 -75.994507 21.888655 -150.574066 16.238850 -9.392155 93.361977 -28.575748 -20.193035 -7.196694 -75.903404 7.928813 5.762121 131.305298 6.096619 -5.996772 -21.058458 0.018774 1.000230 18.171295 -21.561840 -27.806694 2.466344 -0.441047 28.170101 48.318478 3.580746 8.690750 
5.220909 59.302921 46.866764 -9.369044 12.342624 -24.447493 0.000000 0.000000 0.000000 -4.782232 -22.502230 16.245163 -22.476669 9.975624 -6.989940 39.636448 -7.001727 -0.462704 -3.521967 9.154817 6.304141 64.566765 -76.274391 -127.797714 -21.616432 14.945045 44.011280 23.396254 10.941351 -8.705722 3.089181 -14.089146 8.026228 -44.332500 63.113079 -119.558907 16.559298 -14.821087 88.965599 -26.864332 -19.669476 -7.429587 -84.094864 13.123591 3.252545 137.874664 6.290637 -5.583253 -24.662018 -0.251671 1.942791 30.039684 -20.692312 -35.382393 5.074105 -0.346673 33.328350 52.624680 5.246729 11.536551 
4.323275 61.966015 51.042850 -12.421224 9.380352 -27.466398 0.000000 0.000000 0.000000 -13.530319 -18.675234 23.022545 -8.040344 9.084151 -5.201632 35.587605 -3.349590 -0.196120 -3.521967 9.154817 6.304141 -46.114632 -24.096470 -21.339111 -80.624901 -13.230628 34.851994 23.857353 11.659230 -8.602947 3.089181 -14.089146 8.026228 37.222424 34.685692 -39.225815 64.881004 8.485593 71.971786 -22.012709 -17.247919 -8.086871 -87.307816 22.995836 0.123659 144.411240 6.661320 -7.371048 -29.838488 -0.897995 3.909343 44.720612 -18.624971 -45.279709 9.436818 -1.689308 37.611317 58.292290 7.499981 14.763000 
3.311220 63.739990 55.325684 -14.223605 5.946084 -31.742744 0.000000 0.000000 0.000000 -15.419316 -15.607933 25.350014 -0.563229 12.037143 -5.910306 35.661446 -2.792960 -0.146786 -3.521967 9.154817 6.304141 -63.089058 45.124447 -29.088974 -101.935341 -16.333988 23.065834 21.279335 15.067474 -8.187287 3.089181 -14.089146 8.026228 47.319851 -14.000510 -20.226387 94.284592 15.201263 66.713600 -20.402185 -17.060596 -8.203478 -92.896698 34.353889 -1.491454 147.471100 7.267009 -10.334916 -31.062235 -1.388579 5.132626 52.835915 -22.609449 -52.422848 28.035398 -9.934244 36.009949 54.300850 5.906914 12.621542 
